<svg height="452pt" viewBox="0 -5 452 451" width="452pt" xmlns="http://www.w3.org/2000/svg"><path d="m407.175781 196.675781h-13.410156v-28.410156c0-92.507813-75.257813-167.765625-167.765625-167.765625s-167.765625 75.257812-167.765625 167.765625v28.410156h-13.410156c-24.746094.027344-44.7968752 20.082031-44.824219 44.824219v51.765625c.03125 24.742187 20.082031 44.789063 44.824219 44.820313h45.292969c3.316406 0 6-2.6875 6-6v-129.410157c0-3.3125-2.683594-6-6-6h-19.882813v-28.410156c0-85.890625 69.875-155.765625 155.765625-155.765625s155.765625 69.875 155.765625 155.765625v28.410156h-19.882813c-3.316406 0-6 2.6875-6 6v129.410157c0 3.3125 2.683594 6 6 6h19.882813v21.019531c-.027344 22.53125-18.285156 40.789062-40.816406 40.816406h-30.171875c-1.097656-16.277344-14.609375-28.925781-30.925782-28.949219h-64.863281c-17.113281.019532-30.980469 13.886719-31 31v7.894532c.019531 17.113281 13.886719 30.980468 31 31h64.863281c16.316407-.019532 29.828126-12.667969 30.925782-28.945313h30.171875c29.15625-.035156 52.78125-23.660156 52.816406-52.816406v-21.019531h13.410156c24.742188-.03125 44.792969-20.078126 44.824219-44.820313v-51.765625c-.027344-24.742188-20.078125-44.796875-44.824219-44.824219zm-323.058593 129.410157h-39.292969c-18.117188-.023438-32.800781-14.703126-32.824219-32.820313v-51.765625c.019531-18.121094 14.703125-32.804688 32.824219-32.824219h39.292969zm214.734374 83.777343c-.011718 10.488281-8.511718 18.988281-19 19h-64.863281c-10.488281-.011719-18.988281-8.511719-19-19v-7.890625c.011719-10.488281 8.511719-18.988281 19-19h64.863281c10.488282.011719 18.988282 8.511719 19 19zm141.148438-116.597656c-.023438 18.117187-14.707031 32.796875-32.824219 32.820313h-39.292969v-117.410157h39.292969c18.121094.019531 32.804688 14.703125 32.824219 32.824219zm0 0"/><path d="m226 329.253906c46.707031 0 84.570312-37.863281 84.570312-84.570312 0-46.707032-37.863281-84.570313-84.570312-84.570313s-84.570312 37.863281-84.570312 84.570313c.050781 46.6875 37.882812 84.519531 84.570312 84.570312zm0-157.140625c40.078125 0 72.570312 32.492188 72.570312 72.570313 0 40.082031-32.492187 72.570312-72.570312 72.570312s-72.570312-32.488281-72.570312-72.570312c.042968-40.0625 32.507812-72.527344 72.570312-72.570313zm0 0"/><path d="m143.976562 326.707031c.152344.140625.308594.269531.476563.390625 45.144531 44.785156 117.953125 44.785156 163.097656 0 .34375-.226562.640625-.523437.867188-.867187 44.785156-45.144531 44.785156-117.953125 0-163.097657-.226563-.34375-.523438-.636718-.867188-.867187-45.144531-44.785156-117.953125-44.785156-163.097656 0-.34375.230469-.636719.523437-.867187.867187-44.785157 45.144532-44.785157 117.953126 0 163.097657.121093.167969.25.324219.390624.476562zm-16.546874-88.023437h-5.253907c1.339844-23.402344 10.574219-45.660156 26.203125-63.132813l3.675782 3.675781c2.347656 2.308594 6.121093 2.292969 8.449218-.035156 2.332032-2.328125 2.347656-6.101562.035156-8.449218l-3.675781-3.679688c17.472657-15.625 39.730469-24.863281 63.136719-26.203125v5.253906c0 3.3125 2.6875 6 6 6s6-2.6875 6-6v-5.253906c23.402344 1.339844 45.660156 10.574219 63.136719 26.203125l-3.679688 3.675781c-1.535156 1.511719-2.144531 3.730469-1.589843 5.816407.550781 2.082031 2.179687 3.707031 4.261718 4.261718 2.082032.550782 4.300782-.054687 5.8125-1.59375l3.679688-3.675781c15.625 17.472656 24.863281 39.734375 26.203125 63.136719h-5.253907c-3.3125 0-6 2.6875-6 6s2.6875 6 6 6h5.253907c-1.339844 23.402344-10.574219 45.660156-26.203125 63.136718l-3.675782-3.679687c-2.347656-2.308594-6.121093-2.292969-8.449218.035156-2.332032 2.332031-2.347656 6.101563-.035156 8.453125l3.675781 3.675782c-17.472657 15.628906-39.730469 24.863281-63.136719 26.203124v-5.253906c0-3.3125-2.6875-6-6-6s-6 2.6875-6 6v5.253906c-23.402344-1.339843-45.660156-10.574218-63.136719-26.199218l3.679688-3.679688c2.308593-2.347656 2.292969-6.121094-.035157-8.449218-2.328124-2.332032-6.101562-2.347657-8.449218-.035157l-3.679688 3.675781c-15.625-17.472656-24.863281-39.730468-26.203125-63.136718h5.253907c3.3125 0 6-2.6875 6-6s-2.6875-6-6-6zm0 0"/><path d="m202.429688 287.230469h7.417968v5.964843c0 3.3125 2.683594 6 6 6 3.3125 0 6-2.6875 6-6v-5.964843h5.164063v5.964843c0 3.3125 2.6875 6 6 6s6-2.6875 6-6v-6.761718c9.769531-2.683594 16.546875-11.558594 16.558593-21.6875v-3.300782c.003907-6.261718-2.613281-12.234374-7.214843-16.480468 4.601562-4.25 7.21875-10.226563 7.214843-16.484375v-3.300781c-.011718-10.132813-6.789062-19.003907-16.558593-21.6875v-7.316407c0-3.316406-2.6875-6-6-6s-6 2.683594-6 6v6.527344h-5.164063v-6.527344c0-3.316406-2.6875-6-6-6-3.316406 0-6 2.683594-6 6v6.527344h-7.417968c-3.3125 0-6 2.683594-6 6v72.527344c0 3.3125 2.6875 6 6 6zm41.140624-25.78125v3.300781c-.003906 5.785156-4.695312 10.476562-10.480468 10.480469h-24.660156v-24.265625h24.660156c5.785156.007812 10.476562 4.695312 10.480468 10.484375zm-35.140624-46.746094h24.660156c5.785156.007813 10.472656 4.695313 10.480468 10.480469v3.300781c-.007812 5.785156-4.695312 10.472656-10.480468 10.484375h-24.660156zm0 0"/></svg>